<mxfile host="app.diagrams.net" agent="Mozilla/5.0 (Windows NT 10.0; Win64; x64) AppleWebKit/537.36 (KHTML, like Gecko) Chrome/128.0.0.0 Safari/537.36 OPR/114.0.0.0" version="25.0.3">
  <diagram id="C5RBs43oDa-KdzZeNtuy" name="Page-1">
    <mxGraphModel dx="1009" dy="619" grid="1" gridSize="10" guides="1" tooltips="1" connect="1" arrows="1" fold="1" page="1" pageScale="1" pageWidth="827" pageHeight="1169" math="0" shadow="0">
      <root>
        <mxCell id="WIyWlLk6GJQsqaUBKTNV-0" />
        <mxCell id="WIyWlLk6GJQsqaUBKTNV-1" parent="WIyWlLk6GJQsqaUBKTNV-0" />
        <mxCell id="XJSKBv1WSOzIokyZPbyB-2" style="edgeStyle=orthogonalEdgeStyle;rounded=0;orthogonalLoop=1;jettySize=auto;html=1;" edge="1" parent="WIyWlLk6GJQsqaUBKTNV-1" source="XJSKBv1WSOzIokyZPbyB-0" target="XJSKBv1WSOzIokyZPbyB-1">
          <mxGeometry relative="1" as="geometry" />
        </mxCell>
        <mxCell id="XJSKBv1WSOzIokyZPbyB-0" value="start" style="strokeWidth=2;html=1;shape=mxgraph.flowchart.start_1;whiteSpace=wrap;" vertex="1" parent="WIyWlLk6GJQsqaUBKTNV-1">
          <mxGeometry x="310" y="50" width="100" height="60" as="geometry" />
        </mxCell>
        <mxCell id="XJSKBv1WSOzIokyZPbyB-1" value="input a" style="shape=parallelogram;html=1;strokeWidth=2;perimeter=parallelogramPerimeter;whiteSpace=wrap;rounded=1;arcSize=12;size=0.23;" vertex="1" parent="WIyWlLk6GJQsqaUBKTNV-1">
          <mxGeometry x="310" y="160" width="100" height="60" as="geometry" />
        </mxCell>
        <mxCell id="XJSKBv1WSOzIokyZPbyB-3" value="a mod 2 = 0" style="strokeWidth=2;html=1;shape=mxgraph.flowchart.decision;whiteSpace=wrap;" vertex="1" parent="WIyWlLk6GJQsqaUBKTNV-1">
          <mxGeometry x="310" y="260" width="100" height="100" as="geometry" />
        </mxCell>
        <mxCell id="XJSKBv1WSOzIokyZPbyB-4" style="edgeStyle=orthogonalEdgeStyle;rounded=0;orthogonalLoop=1;jettySize=auto;html=1;entryX=0.5;entryY=0;entryDx=0;entryDy=0;entryPerimeter=0;" edge="1" parent="WIyWlLk6GJQsqaUBKTNV-1" source="XJSKBv1WSOzIokyZPbyB-1" target="XJSKBv1WSOzIokyZPbyB-3">
          <mxGeometry relative="1" as="geometry" />
        </mxCell>
        <mxCell id="XJSKBv1WSOzIokyZPbyB-5" value="a là số chẵn" style="strokeWidth=2;html=1;shape=mxgraph.flowchart.display;whiteSpace=wrap;" vertex="1" parent="WIyWlLk6GJQsqaUBKTNV-1">
          <mxGeometry x="150" y="330" width="100" height="60" as="geometry" />
        </mxCell>
        <mxCell id="XJSKBv1WSOzIokyZPbyB-6" value="a là số lẻ" style="strokeWidth=2;html=1;shape=mxgraph.flowchart.display;whiteSpace=wrap;" vertex="1" parent="WIyWlLk6GJQsqaUBKTNV-1">
          <mxGeometry x="480" y="330" width="100" height="60" as="geometry" />
        </mxCell>
        <mxCell id="XJSKBv1WSOzIokyZPbyB-7" style="edgeStyle=orthogonalEdgeStyle;rounded=0;orthogonalLoop=1;jettySize=auto;html=1;entryX=0.352;entryY=-0.017;entryDx=0;entryDy=0;entryPerimeter=0;" edge="1" parent="WIyWlLk6GJQsqaUBKTNV-1" source="XJSKBv1WSOzIokyZPbyB-3" target="XJSKBv1WSOzIokyZPbyB-5">
          <mxGeometry relative="1" as="geometry" />
        </mxCell>
        <mxCell id="XJSKBv1WSOzIokyZPbyB-8" style="edgeStyle=orthogonalEdgeStyle;rounded=0;orthogonalLoop=1;jettySize=auto;html=1;entryX=0.6;entryY=0;entryDx=0;entryDy=0;entryPerimeter=0;" edge="1" parent="WIyWlLk6GJQsqaUBKTNV-1" source="XJSKBv1WSOzIokyZPbyB-3" target="XJSKBv1WSOzIokyZPbyB-6">
          <mxGeometry relative="1" as="geometry" />
        </mxCell>
        <mxCell id="XJSKBv1WSOzIokyZPbyB-9" value="true" style="text;html=1;align=center;verticalAlign=middle;resizable=0;points=[];autosize=1;strokeColor=none;fillColor=none;" vertex="1" parent="WIyWlLk6GJQsqaUBKTNV-1">
          <mxGeometry x="230" y="280" width="40" height="30" as="geometry" />
        </mxCell>
        <mxCell id="XJSKBv1WSOzIokyZPbyB-10" value="false" style="text;html=1;align=center;verticalAlign=middle;resizable=0;points=[];autosize=1;strokeColor=none;fillColor=none;" vertex="1" parent="WIyWlLk6GJQsqaUBKTNV-1">
          <mxGeometry x="445" y="280" width="50" height="30" as="geometry" />
        </mxCell>
        <mxCell id="XJSKBv1WSOzIokyZPbyB-11" value="end" style="strokeWidth=2;html=1;shape=mxgraph.flowchart.start_1;whiteSpace=wrap;" vertex="1" parent="WIyWlLk6GJQsqaUBKTNV-1">
          <mxGeometry x="310" y="440" width="100" height="60" as="geometry" />
        </mxCell>
        <mxCell id="XJSKBv1WSOzIokyZPbyB-12" style="edgeStyle=orthogonalEdgeStyle;rounded=0;orthogonalLoop=1;jettySize=auto;html=1;entryX=0;entryY=0.5;entryDx=0;entryDy=0;entryPerimeter=0;" edge="1" parent="WIyWlLk6GJQsqaUBKTNV-1" source="XJSKBv1WSOzIokyZPbyB-5" target="XJSKBv1WSOzIokyZPbyB-11">
          <mxGeometry relative="1" as="geometry">
            <Array as="points">
              <mxPoint x="200" y="470" />
            </Array>
          </mxGeometry>
        </mxCell>
        <mxCell id="XJSKBv1WSOzIokyZPbyB-13" style="edgeStyle=orthogonalEdgeStyle;rounded=0;orthogonalLoop=1;jettySize=auto;html=1;entryX=1.04;entryY=0.623;entryDx=0;entryDy=0;entryPerimeter=0;" edge="1" parent="WIyWlLk6GJQsqaUBKTNV-1" source="XJSKBv1WSOzIokyZPbyB-6" target="XJSKBv1WSOzIokyZPbyB-11">
          <mxGeometry relative="1" as="geometry">
            <Array as="points">
              <mxPoint x="530" y="477" />
            </Array>
          </mxGeometry>
        </mxCell>
      </root>
    </mxGraphModel>
  </diagram>
</mxfile>
